<svg width="74" height="30" viewBox="0 0 74 30" fill="none" xmlns="http://www.w3.org/2000/svg">
<path d="M15.7436 20.5834C15.7436 24.2137 13.1016 27.0659 9.61755 27.0659C6.13352 27.0659 3.49151 24.2137 3.49151 20.5834C3.49151 16.9531 6.13193 14.1009 9.61755 14.1009C13.1032 14.1009 15.7436 16.9531 15.7436 20.5834ZM15.5593 29.5845H18.6779V0H15.5593V14.2869C14.2391 12.3234 11.8544 11.1748 9.25056 11.1748C4.18736 11.1748 0.299805 15.2863 0.299805 20.5834C0.299805 25.9173 4.18736 29.9984 9.25056 29.9984C11.8544 29.9984 14.2756 28.7022 15.5593 26.7387V29.5845ZM22.0539 29.5845H25.2075V11.5823H22.0539V29.5845ZM31.6989 16.1093C31.6989 14.8131 32.8349 13.9244 34.3028 13.9244C35.8804 13.9244 37.091 14.9238 37.7138 16.6644L40.4654 15.5542C39.5122 12.8496 37.2737 11.1828 34.3759 11.1828C31.0746 11.1828 28.5803 13.2939 28.5803 16.3323C28.5803 18.6279 29.9736 20.3684 33.1653 21.4432L35.1464 22.1106C36.8702 22.7025 37.6772 23.4806 37.6772 24.703C37.6772 26.2959 36.2108 27.2215 34.7063 27.2215C32.8349 27.2215 31.2938 25.9622 30.7441 24.0356L27.9559 25.1104C28.7646 28.0734 31.3319 30 34.6285 30C38.1125 30 40.7911 27.7028 40.7911 24.5185C40.7911 22.1475 39.3612 20.3684 36.1314 19.2583L34.298 18.6199C32.4996 17.991 31.6942 17.1761 31.6942 16.1013L31.6989 16.1093ZM51.6149 29.9984C52.5625 29.9958 53.5041 29.8481 54.4078 29.5605V26.4852C53.5547 26.8317 52.6456 27.016 51.7261 27.029C48.0943 27.029 45.4523 24.1768 45.4523 20.5834C45.4523 16.9531 48.0943 14.1377 51.7261 14.1377C52.6446 14.1389 53.5546 14.3158 54.4078 14.6591V11.6288C53.4943 11.3276 52.5393 11.1744 51.5784 11.1748C46.1132 11.1748 42.2606 15.3232 42.2606 20.5834C42.2606 25.8772 46.002 29.992 51.6149 29.992V29.9984ZM70.5062 20.5834C70.5062 24.1768 67.8658 27.0659 64.3801 27.0659C60.8945 27.0659 58.2541 24.1784 58.2541 20.5834C58.2541 16.9884 60.8961 14.1009 64.3801 14.1009C67.8642 14.1009 70.5062 16.9884 70.5062 20.5834ZM73.6979 20.5834C73.6979 15.3601 69.7357 11.1748 64.3801 11.1748C59.0246 11.1748 55.0624 15.3601 55.0624 20.5834C55.0624 25.8066 59.0246 29.9984 64.3801 29.9984C69.7357 29.9984 73.6979 25.8066 73.6979 20.5834Z" fill="#656874"/>
</svg>
