<svg width="201" height="34" viewBox="0 0 201 34" version="1.1" xmlns="http://www.w3.org/2000/svg" xmlns:xlink="http://www.w3.org/1999/xlink">
<title>logo2</title>
<desc>Created using Figma</desc>
<g id="Canvas" transform="translate(-928 -2481)">
<g id="logo2">
<g id="JetLenses">
<use xlink:href="#path0_fill" transform="translate(967.308 2476)" fill="#40B0F9"/>
<use xlink:href="#path1_fill" transform="translate(967.308 2476)" fill="#434343"/>
</g>
<g id="Ellipse">
<use xlink:href="#path2_fill" transform="translate(928 2481.68)" fill="#40B0F9"/>
</g>
<g id="Ellipse">
<use xlink:href="#path3_fill" transform="translate(932.228 2485.94)" fill="#9CD8FF"/>
</g>
</g>
</g>
<defs>
<path id="path0_fill" d="M 18.0445 10.6257L 18.0445 12.6645L 15.4277 13.114L 15.4277 27.5303C 15.4277 29.6173 14.7641 31.2762 13.437 32.507C 12.1206 33.7271 10.4082 34.3371 8.29981 34.3371C 6.05228 34.3371 4.26496 33.7699 2.93784 32.6354C 1.61073 31.4903 0.97393 29.8314 1.02744 27.6588L 1.05955 27.5624L 4.09372 27.5624C 4.09372 29.0073 4.4576 30.0882 5.18537 30.8053C 5.92385 31.5117 6.96199 31.8648 8.29981 31.8648C 9.46638 31.8648 10.4189 31.4742 11.1574 30.6929C 11.8959 29.9009 12.2651 28.8467 12.2651 27.5303L 12.2651 13.114L 9.64833 12.6645L 9.64833 10.6257L 15.4277 10.6257L 18.0445 10.6257ZM 23.4385 26.0694C 23.4385 26.5403 23.4706 26.9738 23.5349 27.3698C 23.6098 27.7551 23.7114 28.1243 23.8399 28.4775C 24.2359 29.5477 24.8673 30.3558 25.7342 30.9016C 26.6118 31.4367 27.6018 31.7043 28.7042 31.7043C 29.5711 31.7043 30.4112 31.5866 31.2246 31.3511C 32.0487 31.105 32.9103 30.725 33.8093 30.2113L 35.0133 32.2501C 33.9217 32.9993 32.8246 33.5558 31.7223 33.9197C 30.6199 34.2836 29.4748 34.4656 28.2868 34.4656C 27.163 34.4656 26.1195 34.2783 25.1563 33.9037C 24.2038 33.5291 23.3797 32.9726 22.684 32.2341C 21.999 31.4956 21.4586 30.5752 21.0626 29.4728C 20.6773 28.3705 20.4846 27.0862 20.4846 25.6199C 20.4846 24.4319 20.6505 23.3135 20.9823 22.2647C 21.3141 21.2051 21.8064 20.2847 22.4592 19.5034C 23.1228 18.7114 23.9415 18.0853 24.9155 17.6251C 25.8894 17.1649 27.0239 16.9348 28.3189 16.9348C 29.5711 16.9348 30.6146 17.1275 31.4494 17.5128C 32.2949 17.8873 32.9798 18.3904 33.5043 19.0218C 34.0394 19.6426 34.4407 20.3543 34.7083 21.157C 34.9866 21.9597 35.1792 22.7784 35.2862 23.6132C 35.3397 24.0199 35.3718 24.4319 35.3825 24.8493C 35.4039 25.2667 35.4147 25.6734 35.4147 26.0694L 23.4385 26.0694ZM 28.1102 19.4392C 27.4145 19.4392 26.8045 19.5409 26.28 19.7442C 25.7663 19.9369 25.3275 20.2205 24.9636 20.5951C 24.5998 20.959 24.3054 21.4085 24.0807 21.9436C 23.8666 22.4787 23.7061 23.0781 23.5991 23.7416L 32.2199 23.7416C 32.1771 23.1209 32.0755 22.5483 31.9149 22.0239C 31.7651 21.4995 31.5296 21.0446 31.2086 20.6593C 30.8875 20.274 30.4754 19.9743 29.9724 19.7603C 29.4694 19.5462 28.8487 19.4392 28.1102 19.4392ZM 44.3085 17.3683L 48.2095 17.3683L 48.2095 19.7924L 44.2763 19.7924L 44.2282 29.3926C 44.2282 30.0454 44.3031 30.5752 44.4529 30.9819C 44.6028 31.3886 44.8436 31.6722 45.1754 31.8327C 45.5071 31.9826 45.8817 32.0575 46.2991 32.0575C 46.7486 32.0575 47.1446 32.02 47.4871 31.9451C 47.8296 31.8595 48.2042 31.7204 48.6109 31.5277L 49.3012 33.5344C 48.7875 33.802 48.247 34.0107 47.6797 34.1605C 47.1125 34.3211 46.4436 34.4013 45.673 34.4013C 44.9453 34.4013 44.3085 34.3104 43.7626 34.1284C 43.2275 33.9572 42.7726 33.6629 42.3981 33.2455C 42.0342 32.8281 41.7612 32.2715 41.5793 31.5759C 41.3974 30.8695 41.3064 29.9919 41.3064 28.9431L 41.3546 19.7924L 38.7057 19.7924L 38.7057 17.3683L 41.3867 17.3683L 41.3867 13.3869L 44.3085 12.0063L 44.3085 17.3683Z"/>
<path id="path1_fill" d="M 52.4156 9.66246L 60.3141 9.66246L 60.3141 12.4398L 57.8739 12.4398L 57.8739 31.2387L 66.27 31.2387C 66.4413 31.2387 66.6125 31.2013 66.7838 31.1264C 66.955 31.0408 67.1102 30.9337 67.2493 30.8053C 67.3884 30.6769 67.5008 30.5324 67.5864 30.3718C 67.6721 30.2006 67.7149 30.0294 67.7149 29.8581L 67.7149 26.7918L 70.7651 26.7918L 70.7651 34L 52.4156 34L 52.4156 31.2387L 54.7274 31.2387L 54.7274 12.4398L 52.4156 12.4398L 52.4156 9.66246ZM 75.3565 26.0694C 75.3565 26.5403 75.3886 26.9738 75.4528 27.3698C 75.5277 27.7551 75.6294 28.1243 75.7578 28.4775C 76.1538 29.5477 76.7853 30.3558 77.6522 30.9016C 78.5298 31.4367 79.5198 31.7043 80.6221 31.7043C 81.489 31.7043 82.3292 31.5866 83.1426 31.3511C 83.9667 31.105 84.8282 30.725 85.7272 30.2113L 86.9313 32.2501C 85.8396 32.9993 84.7426 33.5558 83.6402 33.9197C 82.5379 34.2836 81.3927 34.4656 80.2047 34.4656C 79.081 34.4656 78.0375 34.2783 77.0742 33.9037C 76.1217 33.5291 75.2976 32.9726 74.6019 32.2341C 73.917 31.4956 73.3765 30.5752 72.9805 29.4728C 72.5952 28.3705 72.4026 27.0862 72.4026 25.6199C 72.4026 24.4319 72.5685 23.3135 72.9002 22.2647C 73.232 21.2051 73.7243 20.2847 74.3772 19.5034C 75.0407 18.7114 75.8595 18.0853 76.8334 17.6251C 77.8074 17.1649 78.9418 16.9348 80.2368 16.9348C 81.489 16.9348 82.5325 17.1275 83.3673 17.5128C 84.2128 17.8873 84.8978 18.3904 85.4222 19.0218C 85.9573 19.6426 86.3587 20.3543 86.6262 21.157C 86.9045 21.9597 87.0971 22.7784 87.2042 23.6132C 87.2577 24.0199 87.2898 24.4319 87.3005 24.8493C 87.3219 25.2667 87.3326 25.6734 87.3326 26.0694L 75.3565 26.0694ZM 80.0281 19.4392C 79.3325 19.4392 78.7224 19.5409 78.198 19.7442C 77.6843 19.9369 77.2455 20.2205 76.8816 20.5951C 76.5177 20.959 76.2234 21.4085 75.9986 21.9436C 75.7846 22.4787 75.624 23.0781 75.517 23.7416L 84.1379 23.7416C 84.0951 23.1209 83.9934 22.5483 83.8329 22.0239C 83.683 21.4995 83.4476 21.0446 83.1265 20.6593C 82.8054 20.274 82.3934 19.9743 81.8904 19.7603C 81.3873 19.5462 80.7666 19.4392 80.0281 19.4392ZM 102.359 31.2387L 104.703 31.2387L 104.703 23.6453C 104.703 22.3717 104.376 21.4085 103.724 20.7556C 103.081 20.0921 102.156 19.7603 100.946 19.7603C 100.251 19.7603 99.5495 19.9262 98.8432 20.258C 98.1368 20.5897 97.4679 21.0018 96.8364 21.4941L 96.8364 31.2387L 99.1803 31.2387L 99.1803 34L 91.4103 34L 91.4103 31.2387L 93.722 31.2387L 93.722 20.1295L 91.4103 20.1295L 91.4103 17.3683L 96.708 17.3683L 96.708 19.3268L 96.7401 19.3268C 97.0933 19.0165 97.4679 18.7221 97.8639 18.4439C 98.2706 18.1656 98.6933 17.9248 99.1321 17.7215C 99.5709 17.5181 100.026 17.3576 100.497 17.2398C 100.978 17.1221 101.481 17.0633 102.006 17.0633C 102.894 17.0633 103.697 17.1863 104.414 17.4325C 105.131 17.6787 105.741 18.0532 106.244 18.5563C 106.747 19.0593 107.132 19.7068 107.4 20.4988C 107.678 21.2801 107.817 22.2058 107.817 23.2761L 107.817 31.2387L 110.129 31.2387L 110.129 34L 102.359 34L 102.359 31.2387ZM 122.94 21.8312C 122.94 21.3817 122.833 21.0018 122.619 20.6914C 122.415 20.3703 122.148 20.1135 121.816 19.9208C 121.484 19.7175 121.115 19.573 120.708 19.4874C 120.302 19.3911 119.906 19.3429 119.52 19.3429C 119.092 19.3429 118.696 19.3911 118.332 19.4874C 117.979 19.5837 117.674 19.7228 117.417 19.9048C 117.161 20.0867 116.957 20.3115 116.807 20.579C 116.668 20.8359 116.599 21.1249 116.599 21.4459C 116.599 22.0025 116.765 22.4466 117.096 22.7784C 117.439 23.0995 118.006 23.3991 118.798 23.6774L 121.993 24.8012C 123.363 25.2614 124.363 25.8875 124.995 26.6795C 125.626 27.4715 125.942 28.4186 125.942 29.521C 125.942 30.2595 125.792 30.9391 125.492 31.5598C 125.203 32.1699 124.786 32.6943 124.24 33.1331C 123.705 33.5612 123.058 33.893 122.298 34.1284C 121.538 34.3746 120.692 34.4977 119.761 34.4977C 118.466 34.4977 117.412 34.289 116.599 33.8716C 115.785 33.4542 115.159 32.903 114.72 32.218L 113.051 32.218L 113.051 29.4568L 116.374 29.4568C 116.374 29.917 116.47 30.313 116.663 30.6448C 116.866 30.9658 117.128 31.228 117.45 31.4314C 117.781 31.6347 118.151 31.7846 118.557 31.8809C 118.975 31.9772 119.397 32.0254 119.825 32.0254C 120.243 32.0254 120.644 31.9772 121.029 31.8809C 121.415 31.7739 121.752 31.624 122.041 31.4314C 122.341 31.228 122.576 30.9872 122.747 30.709C 122.918 30.4307 123.004 30.115 123.004 29.7618C 123.004 29.2267 122.828 28.7718 122.474 28.3972C 122.132 28.0226 121.543 27.6855 120.708 27.3858L 117.53 26.1979C 116.235 25.7377 115.272 25.1544 114.64 24.448C 114.019 23.7309 113.709 22.8373 113.709 21.767C 113.709 21.0606 113.837 20.4078 114.094 19.8085C 114.362 19.2091 114.742 18.6954 115.234 18.2673C 115.737 17.8285 116.347 17.486 117.064 17.2398C 117.781 16.9937 118.6 16.8706 119.52 16.8706C 120.708 16.8706 121.704 17.0365 122.506 17.3683C 123.309 17.7001 124.032 18.2673 124.674 19.07L 126.231 19.07L 126.231 21.8312L 122.94 21.8312ZM 132.123 26.0694C 132.123 26.5403 132.155 26.9738 132.219 27.3698C 132.294 27.7551 132.396 28.1243 132.524 28.4775C 132.92 29.5477 133.551 30.3558 134.418 30.9016C 135.296 31.4367 136.286 31.7043 137.388 31.7043C 138.255 31.7043 139.095 31.5866 139.909 31.3511C 140.733 31.105 141.594 30.725 142.493 30.2113L 143.697 32.2501C 142.606 32.9993 141.509 33.5558 140.406 33.9197C 139.304 34.2836 138.159 34.4656 136.971 34.4656C 135.847 34.4656 134.804 34.2783 133.84 33.9037C 132.888 33.5291 132.064 32.9726 131.368 32.2341C 130.683 31.4956 130.143 30.5752 129.747 29.4728C 129.361 28.3705 129.169 27.0862 129.169 25.6199C 129.169 24.4319 129.335 23.3135 129.666 22.2647C 129.998 21.2051 130.491 20.2847 131.143 19.5034C 131.807 18.7114 132.626 18.0853 133.6 17.6251C 134.574 17.1649 135.708 16.9348 137.003 16.9348C 138.255 16.9348 139.299 17.1275 140.134 17.5128C 140.979 17.8873 141.664 18.3904 142.188 19.0218C 142.724 19.6426 143.125 20.3543 143.392 21.157C 143.671 21.9597 143.863 22.7784 143.97 23.6132C 144.024 24.0199 144.056 24.4319 144.067 24.8493C 144.088 25.2667 144.099 25.6734 144.099 26.0694L 132.123 26.0694ZM 136.794 19.4392C 136.099 19.4392 135.489 19.5409 134.964 19.7442C 134.45 19.9369 134.012 20.2205 133.648 20.5951C 133.284 20.959 132.99 21.4085 132.765 21.9436C 132.551 22.4787 132.39 23.0781 132.283 23.7416L 140.904 23.7416C 140.861 23.1209 140.76 22.5483 140.599 22.0239C 140.449 21.4995 140.214 21.0446 139.893 20.6593C 139.572 20.274 139.16 19.9743 138.657 19.7603C 138.154 19.5462 137.533 19.4392 136.794 19.4392ZM 157.777 21.8312C 157.777 21.3817 157.67 21.0018 157.456 20.6914C 157.252 20.3703 156.985 20.1135 156.653 19.9208C 156.321 19.7175 155.952 19.573 155.545 19.4874C 155.138 19.3911 154.742 19.3429 154.357 19.3429C 153.929 19.3429 153.533 19.3911 153.169 19.4874C 152.816 19.5837 152.511 19.7228 152.254 19.9048C 151.997 20.0867 151.794 20.3115 151.644 20.579C 151.505 20.8359 151.435 21.1249 151.435 21.4459C 151.435 22.0025 151.601 22.4466 151.933 22.7784C 152.276 23.0995 152.843 23.3991 153.635 23.6774L 156.829 24.8012C 158.199 25.2614 159.2 25.8875 159.832 26.6795C 160.463 27.4715 160.779 28.4186 160.779 29.521C 160.779 30.2595 160.629 30.9391 160.329 31.5598C 160.04 32.1699 159.623 32.6943 159.077 33.1331C 158.542 33.5612 157.894 33.893 157.134 34.1284C 156.375 34.3746 155.529 34.4977 154.598 34.4977C 153.303 34.4977 152.249 34.289 151.435 33.8716C 150.622 33.4542 149.996 32.903 149.557 32.218L 147.887 32.218L 147.887 29.4568L 151.211 29.4568C 151.211 29.917 151.307 30.313 151.5 30.6448C 151.703 30.9658 151.965 31.228 152.286 31.4314C 152.618 31.6347 152.987 31.7846 153.394 31.8809C 153.811 31.9772 154.234 32.0254 154.662 32.0254C 155.08 32.0254 155.481 31.9772 155.866 31.8809C 156.252 31.7739 156.589 31.624 156.878 31.4314C 157.177 31.228 157.413 30.9872 157.584 30.709C 157.755 30.4307 157.841 30.115 157.841 29.7618C 157.841 29.2267 157.664 28.7718 157.311 28.3972C 156.969 28.0226 156.38 27.6855 155.545 27.3858L 152.366 26.1979C 151.071 25.7377 150.108 25.1544 149.477 24.448C 148.856 23.7309 148.546 22.8373 148.546 21.767C 148.546 21.0606 148.674 20.4078 148.931 19.8085C 149.199 19.2091 149.578 18.6954 150.071 18.2673C 150.574 17.8285 151.184 17.486 151.901 17.2398C 152.618 16.9937 153.437 16.8706 154.357 16.8706C 155.545 16.8706 156.54 17.0365 157.343 17.3683C 158.146 17.7001 158.868 18.2673 159.51 19.07L 161.068 19.07L 161.068 21.8312L 157.777 21.8312Z"/>
<path id="path2_fill" d="M 32.416 16.3226C 32.416 25.3373 25.1594 32.6452 16.208 32.6452C 7.25657 32.6452 0 25.3373 0 16.3226C 0 7.30787 7.25657 0 16.208 0C 25.1594 0 32.416 7.30787 32.416 16.3226Z"/>
<path id="path3_fill" d="M 26.7785 13.4839C 26.7785 20.9308 20.7839 26.9677 13.3892 26.9677C 5.99456 26.9677 0 20.9308 0 13.4839C 0 6.03693 5.99456 0 13.3892 0C 20.7839 0 26.7785 6.03693 26.7785 13.4839Z"/>
</defs>
</svg>
