<svg version="1.1" id="Layer_1" xmlns="http://www.w3.org/2000/svg" xmlns:xlink="http://www.w3.org/1999/xlink" x="0px" y="0px" viewBox="0 0 140 34" xml:space="preserve" width="140" height="34"><style type="text/css">
	.st0{fill:#E74011;}
	.st1{fill:#EF7D00;}
	.st2{fill:#333333;}
</style><g><polygon class="st0" points="4.78,2.72 0,2.72 0,10.58 0,26.14 4.78,28.9 	"></polygon><polygon class="st0" points="6.81,2.72 6.81,30.07 13.62,34 27.24,26.14 27.24,10.58 27.24,2.72 	"></polygon></g><g><polygon class="st1" points="27.24,2.72 13.62,2.72 13.62,34 27.24,26.14 	"></polygon></g><g id="Layer_3"><path class="st2" d="M50.06,26.43l-5.34-8.78l-0.55,0.03h-2.4v3.66c0,1.26,0.03,3.85,0.13,4.79h-5.18 c0.16-1.59,0.23-5.86,0.23-8.03v-7.38c0-2.14-0.06-6.44-0.23-8.03c1.2,0,5.44-0.16,6.93-0.16c6.51-0.06,9.98,3.01,9.91,7.03 c-0.06,3.24-1.68,5.37-4.67,6.9l3.7,5.38c0.81,1.13,2.23,3.14,2.98,4.11L50.06,26.43z M44.49,14.16c2.69,0,4.31-1.68,4.31-3.92 c0-2.36-1.33-3.85-4.67-3.85c-0.87,0-1.65,0.03-2.36,0.1v7.68C41.76,14.16,44.49,14.16,44.49,14.16z"></path><path class="st2" d="M68.82,18.4l-9.38,0.29c0.23,2.82,1.78,4.31,4.73,4.31c2.66,0,4.63-1,6.35-2.17l-0.13,3.92 c-1.97,1.26-4.15,2.01-6.73,2.01c-5.99,0-8.9-3.98-8.9-8.68c0-5.41,3.63-9.46,8.97-9.46c5.25,0,7.48,3.76,7.48,8.42L68.82,18.4z M66.89,15.87c-0.26-2.43-1.23-3.76-3.37-3.76c-2.23,0-3.69,1.68-4.02,3.95L66.89,15.87z"></path><path class="st2" d="M84.47,26.14c0.2-1.56,0.26-4.02,0.26-6.12v-4.08c0-2.07-0.58-3.4-2.46-3.4c-2.07,0-4.05,1.97-4.05,3.85v6.06 c0,1.26,0.03,2.75,0.16,3.69h-5.22c0.16-1.56,0.23-4.02,0.23-6.12v-4.79c0-2.07-0.06-4.41-0.23-5.96c1.26,0,3.69-0.26,4.76-0.39 l0.26,3.5c1.39-2.36,3.92-3.76,6.12-3.76c3.56,0,5.25,2.3,5.25,6.09v7.74c0,1.26,0.06,2.75,0.16,3.69L84.47,26.14L84.47,26.14z"></path><path class="st2" d="M108.43,5.8c-1.65,0-2.82-1.16-2.82-2.62c0-1.62,1.26-2.82,2.91-2.82c1.59,0,2.82,1.16,2.82,2.62 C111.34,4.6,110.08,5.8,108.43,5.8z M105.64,26.14c0.2-1.56,0.26-3.79,0.26-5.89v-4.99c0-2.07-0.06-4.57-0.26-6.12 c1.3,0,4.15-0.13,5.25-0.26c-0.13,0.94-0.16,2.59-0.16,3.85v9.91c0,1.26,0.03,2.56,0.16,3.5L105.64,26.14L105.64,26.14z"></path><path class="st2" d="M134.55,9.14c-0.58,1.68-1.33,3.89-2.11,5.93l-1.62,4.57l-3.99-10.65c0-0.01,0-0.02,0-0.03h-0.01l-0.02-0.05 c-0.06,0-0.27,0.03-0.57,0.05l-6.06,0.08V7.68c0-2.46,0.97-3.69,2.95-3.69c0.55,0,1.1,0.1,1.62,0.26l-0.32-3.95 c-0.55-0.16-1.2-0.29-2.14-0.29c-4.47,0-6.9,3.08-6.9,7.94v1.1h-2.17l-0.87,3.59h3.04v7.64c0,2.07-0.06,4.31-0.23,5.86h5.18 c-0.13-0.9-0.16-2.23-0.16-3.5v-10l3.07-0.04c0.49,1.09,0.98,2.22,1.42,3.21l2.07,4.63c0.65,1.59,1.1,2.69,1.65,4.11l-4.05,9.33 c1.46-0.16,3.4-0.23,5.12-0.23c0.58-1.78,1.88-4.96,2.4-6.25l7.64-18.43C138.01,9.1,136.33,9.14,134.55,9.14z"></path><path class="st2" d="M103.13,25.72c-0.94,0.61-2.46,0.97-3.82,0.97c-3.5,0-5.31-1.62-5.31-5.63v-8.43h-2.95l0.84-3.59h2.17 l0.34-3.72l4.42-2.6v6.32h4.44c-0.1,0.78-0.13,2.3-0.13,3.59h-4.31v7.97c0,1.78,0.65,2.23,1.85,2.23c0.87,0,1.88-0.35,2.59-0.81 L103.13,25.72z"></path></g></svg>